<mxfile host="app.diagrams.net" modified="2023-11-28T11:45:46.389Z" agent="Mozilla/5.0 (Macintosh; Intel Mac OS X 10_15_7) AppleWebKit/537.36 (KHTML, like Gecko) Chrome/119.0.0.0 Safari/537.36" etag="9Il_wl5s7rAD6KhJp-yS" version="22.1.4" type="github">
  <diagram name="第 1 页" id="yezRByxBeG7q0EoHFZJD">
    <mxGraphModel dx="1590" dy="1010" grid="1" gridSize="10" guides="1" tooltips="1" connect="1" arrows="1" fold="1" page="1" pageScale="1" pageWidth="827" pageHeight="1169" math="0" shadow="0">
      <root>
        <mxCell id="0" />
        <mxCell id="1" parent="0" />
        <mxCell id="_EL9DQEcoJoAVr3Y6BzG-3" value="用户管理" style="rounded=0;whiteSpace=wrap;html=1;direction=south;" parent="1" vertex="1">
          <mxGeometry x="175" y="1653" width="25" height="135" as="geometry" />
        </mxCell>
        <mxCell id="_EL9DQEcoJoAVr3Y6BzG-4" value="数据源管理" style="rounded=0;whiteSpace=wrap;html=1;direction=south;" parent="1" vertex="1">
          <mxGeometry x="1135.5" y="1656" width="25" height="135" as="geometry" />
        </mxCell>
        <mxCell id="_EL9DQEcoJoAVr3Y6BzG-6" value="模版管理" style="rounded=0;whiteSpace=wrap;html=1;direction=south;" parent="1" vertex="1">
          <mxGeometry x="369.75" y="1657" width="25" height="143" as="geometry" />
        </mxCell>
        <mxCell id="_EL9DQEcoJoAVr3Y6BzG-8" value="活动页面管理" style="rounded=0;whiteSpace=wrap;html=1;direction=south;" parent="1" vertex="1">
          <mxGeometry x="336.5" y="2490" width="25" height="135" as="geometry" />
        </mxCell>
        <mxCell id="_EL9DQEcoJoAVr3Y6BzG-9" value="生成器" style="rounded=0;whiteSpace=wrap;html=1;direction=south;" parent="1" vertex="1">
          <mxGeometry x="575.5" y="1885" width="25" height="143" as="geometry" />
        </mxCell>
        <mxCell id="_EL9DQEcoJoAVr3Y6BzG-10" value="监控管理" style="rounded=0;whiteSpace=wrap;html=1;direction=south;" parent="1" vertex="1">
          <mxGeometry x="927.5" y="1663" width="25" height="135" as="geometry" />
        </mxCell>
        <mxCell id="_EL9DQEcoJoAVr3Y6BzG-11" value="" style="strokeWidth=1;html=1;shape=mxgraph.flowchart.annotation_2;align=left;labelPosition=right;pointerEvents=1;direction=south;" parent="1" vertex="1">
          <mxGeometry x="100" y="1790" width="169.5" height="100" as="geometry" />
        </mxCell>
        <mxCell id="_EL9DQEcoJoAVr3Y6BzG-12" value="新增用户" style="rounded=0;whiteSpace=wrap;html=1;direction=south;" parent="1" vertex="1">
          <mxGeometry x="138" y="1887" width="25" height="135" as="geometry" />
        </mxCell>
        <mxCell id="_EL9DQEcoJoAVr3Y6BzG-13" value="删除用户" style="rounded=0;whiteSpace=wrap;html=1;direction=south;" parent="1" vertex="1">
          <mxGeometry x="177.5" y="1887" width="25" height="135" as="geometry" />
        </mxCell>
        <mxCell id="_EL9DQEcoJoAVr3Y6BzG-14" value="编辑用户" style="rounded=0;whiteSpace=wrap;html=1;direction=south;" parent="1" vertex="1">
          <mxGeometry x="217.5" y="1887" width="25" height="135" as="geometry" />
        </mxCell>
        <mxCell id="_EL9DQEcoJoAVr3Y6BzG-15" value="查看用户" style="rounded=0;whiteSpace=wrap;html=1;direction=south;" parent="1" vertex="1">
          <mxGeometry x="257.5" y="1887" width="25" height="135" as="geometry" />
        </mxCell>
        <mxCell id="_EL9DQEcoJoAVr3Y6BzG-16" value="" style="strokeWidth=1;html=1;shape=mxgraph.flowchart.annotation_2;align=left;labelPosition=right;pointerEvents=1;direction=south;" parent="1" vertex="1">
          <mxGeometry x="326" y="1800" width="113.5" height="80" as="geometry" />
        </mxCell>
        <mxCell id="_EL9DQEcoJoAVr3Y6BzG-17" value="新增模版" style="rounded=0;whiteSpace=wrap;html=1;direction=south;" parent="1" vertex="1">
          <mxGeometry x="308" y="1886" width="25" height="135" as="geometry" />
        </mxCell>
        <mxCell id="_EL9DQEcoJoAVr3Y6BzG-18" value="编辑模版" style="rounded=0;whiteSpace=wrap;html=1;direction=south;" parent="1" vertex="1">
          <mxGeometry x="347.5" y="1886" width="25" height="135" as="geometry" />
        </mxCell>
        <mxCell id="_EL9DQEcoJoAVr3Y6BzG-19" value="删除模版" style="rounded=0;whiteSpace=wrap;html=1;direction=south;" parent="1" vertex="1">
          <mxGeometry x="387.5" y="1886" width="25" height="135" as="geometry" />
        </mxCell>
        <mxCell id="_EL9DQEcoJoAVr3Y6BzG-20" value="查看模版" style="rounded=0;whiteSpace=wrap;html=1;direction=south;" parent="1" vertex="1">
          <mxGeometry x="427.5" y="1886" width="25" height="135" as="geometry" />
        </mxCell>
        <mxCell id="_EL9DQEcoJoAVr3Y6BzG-21" value="" style="strokeWidth=1;html=1;shape=mxgraph.flowchart.annotation_2;align=left;labelPosition=right;pointerEvents=1;direction=south;" parent="1" vertex="1">
          <mxGeometry x="239.75" y="2625" width="217.25" height="95" as="geometry" />
        </mxCell>
        <mxCell id="_EL9DQEcoJoAVr3Y6BzG-22" value="新增页面" style="rounded=0;whiteSpace=wrap;html=1;direction=south;" parent="1" vertex="1">
          <mxGeometry x="230" y="2715" width="25" height="135" as="geometry" />
        </mxCell>
        <mxCell id="_EL9DQEcoJoAVr3Y6BzG-23" value="编辑页面" style="rounded=0;whiteSpace=wrap;html=1;direction=south;" parent="1" vertex="1">
          <mxGeometry x="271.15999999999997" y="2715" width="25" height="135" as="geometry" />
        </mxCell>
        <mxCell id="_EL9DQEcoJoAVr3Y6BzG-24" value="删除页面" style="rounded=0;whiteSpace=wrap;html=1;direction=south;" parent="1" vertex="1">
          <mxGeometry x="315" y="2715" width="25" height="135" as="geometry" />
        </mxCell>
        <mxCell id="_EL9DQEcoJoAVr3Y6BzG-25" value="查看页面" style="rounded=0;whiteSpace=wrap;html=1;direction=south;" parent="1" vertex="1">
          <mxGeometry x="355" y="2715" width="25" height="135" as="geometry" />
        </mxCell>
        <mxCell id="_EL9DQEcoJoAVr3Y6BzG-26" value="页面设计" style="rounded=0;whiteSpace=wrap;html=1;direction=south;" parent="1" vertex="1">
          <mxGeometry x="399" y="2715" width="25" height="135" as="geometry" />
        </mxCell>
        <mxCell id="_EL9DQEcoJoAVr3Y6BzG-27" value="协同编辑" style="rounded=0;whiteSpace=wrap;html=1;direction=south;" parent="1" vertex="1">
          <mxGeometry x="443" y="2715" width="20.5" height="135" as="geometry" />
        </mxCell>
        <mxCell id="_EL9DQEcoJoAVr3Y6BzG-28" value="" style="strokeWidth=1;html=1;shape=mxgraph.flowchart.annotation_2;align=left;labelPosition=right;pointerEvents=1;direction=south;" parent="1" vertex="1">
          <mxGeometry x="559.5" y="2028" width="57.5" height="90" as="geometry" />
        </mxCell>
        <mxCell id="_EL9DQEcoJoAVr3Y6BzG-29" value="属性设计" style="rounded=0;whiteSpace=wrap;html=1;direction=south;" parent="1" vertex="1">
          <mxGeometry x="540" y="2116" width="25" height="135" as="geometry" />
        </mxCell>
        <mxCell id="_EL9DQEcoJoAVr3Y6BzG-30" value="导出数据" style="rounded=0;whiteSpace=wrap;html=1;direction=south;" parent="1" vertex="1">
          <mxGeometry x="603" y="2117" width="25" height="135" as="geometry" />
        </mxCell>
        <mxCell id="_EL9DQEcoJoAVr3Y6BzG-31" value="" style="strokeWidth=1;html=1;shape=mxgraph.flowchart.annotation_2;align=left;labelPosition=right;pointerEvents=1;direction=south;" parent="1" vertex="1">
          <mxGeometry x="850" y="1789" width="180" height="102" as="geometry" />
        </mxCell>
        <mxCell id="_EL9DQEcoJoAVr3Y6BzG-32" value="系统故障" style="rounded=0;whiteSpace=wrap;html=1;direction=south;" parent="1" vertex="1">
          <mxGeometry x="838" y="1885" width="25" height="135" as="geometry" />
        </mxCell>
        <mxCell id="_EL9DQEcoJoAVr3Y6BzG-33" value="页面数据" style="rounded=0;whiteSpace=wrap;html=1;direction=south;" parent="1" vertex="1">
          <mxGeometry x="884" y="1885" width="25" height="135" as="geometry" />
        </mxCell>
        <mxCell id="_EL9DQEcoJoAVr3Y6BzG-34" value="页面性能" style="rounded=0;whiteSpace=wrap;html=1;direction=south;" parent="1" vertex="1">
          <mxGeometry x="929" y="1885" width="25" height="135" as="geometry" />
        </mxCell>
        <mxCell id="_EL9DQEcoJoAVr3Y6BzG-35" value="所有页面数据统计" style="rounded=0;whiteSpace=wrap;html=1;direction=south;" parent="1" vertex="1">
          <mxGeometry x="972" y="1885" width="25" height="135" as="geometry" />
        </mxCell>
        <mxCell id="_EL9DQEcoJoAVr3Y6BzG-36" value="物料组件数据" style="rounded=0;whiteSpace=wrap;html=1;direction=south;" parent="1" vertex="1">
          <mxGeometry x="1016" y="1885" width="25" height="135" as="geometry" />
        </mxCell>
        <mxCell id="_EL9DQEcoJoAVr3Y6BzG-37" value="" style="strokeWidth=1;html=1;shape=mxgraph.flowchart.annotation_2;align=left;labelPosition=right;pointerEvents=1;direction=south;" parent="1" vertex="1">
          <mxGeometry x="1074" y="1791" width="152" height="89" as="geometry" />
        </mxCell>
        <mxCell id="_EL9DQEcoJoAVr3Y6BzG-38" value="新增数据源" style="rounded=0;whiteSpace=wrap;html=1;direction=south;" parent="1" vertex="1">
          <mxGeometry x="1063" y="1878" width="25" height="135" as="geometry" />
        </mxCell>
        <mxCell id="_EL9DQEcoJoAVr3Y6BzG-39" value="编辑数据源" style="rounded=0;whiteSpace=wrap;html=1;direction=south;" parent="1" vertex="1">
          <mxGeometry x="1108.5" y="1880" width="25" height="135" as="geometry" />
        </mxCell>
        <mxCell id="_EL9DQEcoJoAVr3Y6BzG-40" value="删除数据源" style="rounded=0;whiteSpace=wrap;html=1;direction=south;" parent="1" vertex="1">
          <mxGeometry x="1158.5" y="1880" width="25" height="135" as="geometry" />
        </mxCell>
        <mxCell id="_EL9DQEcoJoAVr3Y6BzG-41" value="查看数据源" style="rounded=0;whiteSpace=wrap;html=1;direction=south;" parent="1" vertex="1">
          <mxGeometry x="1210" y="1878" width="25" height="135" as="geometry" />
        </mxCell>
        <mxCell id="_EL9DQEcoJoAVr3Y6BzG-42" value="物料组件管理" style="rounded=0;whiteSpace=wrap;html=1;direction=south;" parent="1" vertex="1">
          <mxGeometry x="495" y="1656" width="25" height="135" as="geometry" />
        </mxCell>
        <mxCell id="_EL9DQEcoJoAVr3Y6BzG-43" value="" style="strokeWidth=1;html=1;shape=mxgraph.flowchart.annotation_2;align=left;labelPosition=right;pointerEvents=1;direction=south;" parent="1" vertex="1">
          <mxGeometry x="481" y="1820" width="109" height="67" as="geometry" />
        </mxCell>
        <mxCell id="_EL9DQEcoJoAVr3Y6BzG-44" value="分类管理" style="rounded=0;whiteSpace=wrap;html=1;direction=south;" parent="1" vertex="1">
          <mxGeometry x="470" y="1888" width="25" height="135" as="geometry" />
        </mxCell>
        <mxCell id="_EL9DQEcoJoAVr3Y6BzG-48" value="组件下架" style="rounded=0;whiteSpace=wrap;html=1;direction=south;" parent="1" vertex="1">
          <mxGeometry x="680" y="1889" width="25" height="135" as="geometry" />
        </mxCell>
        <mxCell id="_EL9DQEcoJoAVr3Y6BzG-49" value="登录" style="rounded=0;whiteSpace=wrap;html=1;direction=south;" parent="1" vertex="1">
          <mxGeometry x="88" y="1889.5" width="25" height="135" as="geometry" />
        </mxCell>
        <mxCell id="_EL9DQEcoJoAVr3Y6BzG-53" value="" style="strokeWidth=1;html=1;shape=mxgraph.flowchart.annotation_2;align=left;labelPosition=right;pointerEvents=1;direction=south;" parent="1" vertex="1">
          <mxGeometry x="440" y="2024" width="69" height="90" as="geometry" />
        </mxCell>
        <mxCell id="_EL9DQEcoJoAVr3Y6BzG-54" value="分类增删改查" style="rounded=0;whiteSpace=wrap;html=1;direction=south;" parent="1" vertex="1">
          <mxGeometry x="432" y="2112" width="25" height="135" as="geometry" />
        </mxCell>
        <mxCell id="_EL9DQEcoJoAVr3Y6BzG-55" value="组件增删改查" style="rounded=0;whiteSpace=wrap;html=1;direction=south;" parent="1" vertex="1">
          <mxGeometry x="495" y="2113" width="25" height="135" as="geometry" />
        </mxCell>
        <mxCell id="eoEls10Fh8nNtT96hwVB-1" value="&lt;font style=&quot;font-size: 12px;&quot;&gt;活动页面搭建平台&lt;/font&gt;" style="rounded=0;whiteSpace=wrap;html=1;" parent="1" vertex="1">
          <mxGeometry x="670" y="450" width="160" height="50" as="geometry" />
        </mxCell>
        <mxCell id="eoEls10Fh8nNtT96hwVB-4" value="用户管理" style="rounded=0;whiteSpace=wrap;html=1;" parent="1" vertex="1">
          <mxGeometry x="268.49999999999994" y="630" width="23" height="100" as="geometry" />
        </mxCell>
        <mxCell id="eoEls10Fh8nNtT96hwVB-6" value="模版管理" style="rounded=0;whiteSpace=wrap;html=1;" parent="1" vertex="1">
          <mxGeometry x="479" y="630" width="23" height="100" as="geometry" />
        </mxCell>
        <mxCell id="eoEls10Fh8nNtT96hwVB-9" value="组件管理" style="rounded=0;whiteSpace=wrap;html=1;" parent="1" vertex="1">
          <mxGeometry x="1168.5" y="640" width="23" height="100" as="geometry" />
        </mxCell>
        <mxCell id="eoEls10Fh8nNtT96hwVB-13" value="活动页面管理" style="rounded=0;whiteSpace=wrap;html=1;" parent="1" vertex="1">
          <mxGeometry x="709" y="630" width="23" height="100" as="geometry" />
        </mxCell>
        <mxCell id="eoEls10Fh8nNtT96hwVB-15" value="" style="endArrow=none;html=1;rounded=0;entryX=0.5;entryY=1;entryDx=0;entryDy=0;" parent="1" target="eoEls10Fh8nNtT96hwVB-1" edge="1">
          <mxGeometry width="50" height="50" relative="1" as="geometry">
            <mxPoint x="750" y="560" as="sourcePoint" />
            <mxPoint x="770" y="860" as="targetPoint" />
            <Array as="points">
              <mxPoint x="750" y="520" />
            </Array>
          </mxGeometry>
        </mxCell>
        <mxCell id="eoEls10Fh8nNtT96hwVB-16" value="" style="endArrow=none;html=1;rounded=0;" parent="1" edge="1">
          <mxGeometry width="50" height="50" relative="1" as="geometry">
            <mxPoint x="280" y="560" as="sourcePoint" />
            <mxPoint x="1180" y="560" as="targetPoint" />
          </mxGeometry>
        </mxCell>
        <mxCell id="eoEls10Fh8nNtT96hwVB-17" value="" style="endArrow=none;html=1;rounded=0;exitX=0.5;exitY=0;exitDx=0;exitDy=0;" parent="1" source="eoEls10Fh8nNtT96hwVB-4" edge="1">
          <mxGeometry width="50" height="50" relative="1" as="geometry">
            <mxPoint x="720" y="910" as="sourcePoint" />
            <mxPoint x="280" y="560" as="targetPoint" />
          </mxGeometry>
        </mxCell>
        <mxCell id="eoEls10Fh8nNtT96hwVB-18" value="登录" style="rounded=0;whiteSpace=wrap;html=1;" parent="1" vertex="1">
          <mxGeometry x="167.99999999999994" y="840" width="23" height="100" as="geometry" />
        </mxCell>
        <mxCell id="eoEls10Fh8nNtT96hwVB-19" value="新增用户" style="rounded=0;whiteSpace=wrap;html=1;" parent="1" vertex="1">
          <mxGeometry x="218.49999999999994" y="840" width="23" height="100" as="geometry" />
        </mxCell>
        <mxCell id="eoEls10Fh8nNtT96hwVB-20" value="删除用户" style="rounded=0;whiteSpace=wrap;html=1;" parent="1" vertex="1">
          <mxGeometry x="268.49999999999994" y="840" width="23" height="100" as="geometry" />
        </mxCell>
        <mxCell id="eoEls10Fh8nNtT96hwVB-22" value="编辑用户" style="rounded=0;whiteSpace=wrap;html=1;" parent="1" vertex="1">
          <mxGeometry x="307.99999999999994" y="840" width="23" height="100" as="geometry" />
        </mxCell>
        <mxCell id="eoEls10Fh8nNtT96hwVB-23" value="查看用户" style="rounded=0;whiteSpace=wrap;html=1;" parent="1" vertex="1">
          <mxGeometry x="347.49999999999994" y="840" width="23" height="100" as="geometry" />
        </mxCell>
        <mxCell id="eoEls10Fh8nNtT96hwVB-26" value="" style="endArrow=none;html=1;rounded=0;exitX=0.5;exitY=1;exitDx=0;exitDy=0;" parent="1" source="eoEls10Fh8nNtT96hwVB-4" edge="1">
          <mxGeometry width="50" height="50" relative="1" as="geometry">
            <mxPoint x="720" y="500" as="sourcePoint" />
            <mxPoint x="280" y="800" as="targetPoint" />
          </mxGeometry>
        </mxCell>
        <mxCell id="eoEls10Fh8nNtT96hwVB-27" value="" style="endArrow=none;html=1;rounded=0;" parent="1" edge="1">
          <mxGeometry width="50" height="50" relative="1" as="geometry">
            <mxPoint x="180" y="800" as="sourcePoint" />
            <mxPoint x="360" y="800" as="targetPoint" />
          </mxGeometry>
        </mxCell>
        <mxCell id="eoEls10Fh8nNtT96hwVB-28" value="" style="endArrow=none;html=1;rounded=0;entryX=0.5;entryY=0;entryDx=0;entryDy=0;" parent="1" target="eoEls10Fh8nNtT96hwVB-18" edge="1">
          <mxGeometry width="50" height="50" relative="1" as="geometry">
            <mxPoint x="180" y="800" as="sourcePoint" />
            <mxPoint x="770" y="450" as="targetPoint" />
          </mxGeometry>
        </mxCell>
        <mxCell id="eoEls10Fh8nNtT96hwVB-30" value="" style="endArrow=none;html=1;rounded=0;entryX=0.5;entryY=0;entryDx=0;entryDy=0;" parent="1" target="eoEls10Fh8nNtT96hwVB-19" edge="1">
          <mxGeometry width="50" height="50" relative="1" as="geometry">
            <mxPoint x="230" y="800" as="sourcePoint" />
            <mxPoint x="770" y="450" as="targetPoint" />
          </mxGeometry>
        </mxCell>
        <mxCell id="eoEls10Fh8nNtT96hwVB-31" value="" style="endArrow=none;html=1;rounded=0;entryX=0.5;entryY=0;entryDx=0;entryDy=0;" parent="1" target="eoEls10Fh8nNtT96hwVB-20" edge="1">
          <mxGeometry width="50" height="50" relative="1" as="geometry">
            <mxPoint x="280" y="800" as="sourcePoint" />
            <mxPoint x="770" y="450" as="targetPoint" />
          </mxGeometry>
        </mxCell>
        <mxCell id="eoEls10Fh8nNtT96hwVB-32" value="" style="endArrow=none;html=1;rounded=0;entryX=0.5;entryY=0;entryDx=0;entryDy=0;" parent="1" target="eoEls10Fh8nNtT96hwVB-22" edge="1">
          <mxGeometry width="50" height="50" relative="1" as="geometry">
            <mxPoint x="320" y="800" as="sourcePoint" />
            <mxPoint x="330" y="830" as="targetPoint" />
          </mxGeometry>
        </mxCell>
        <mxCell id="eoEls10Fh8nNtT96hwVB-33" value="" style="endArrow=none;html=1;rounded=0;entryX=0.5;entryY=0;entryDx=0;entryDy=0;" parent="1" target="eoEls10Fh8nNtT96hwVB-23" edge="1">
          <mxGeometry width="50" height="50" relative="1" as="geometry">
            <mxPoint x="360" y="800" as="sourcePoint" />
            <mxPoint x="770" y="450" as="targetPoint" />
          </mxGeometry>
        </mxCell>
        <mxCell id="eoEls10Fh8nNtT96hwVB-34" value="新增模版" style="rounded=0;whiteSpace=wrap;html=1;" parent="1" vertex="1">
          <mxGeometry x="394.74999999999994" y="840" width="23" height="100" as="geometry" />
        </mxCell>
        <mxCell id="eoEls10Fh8nNtT96hwVB-35" value="编辑模版" style="rounded=0;whiteSpace=wrap;html=1;" parent="1" vertex="1">
          <mxGeometry x="445.24999999999994" y="840" width="23" height="100" as="geometry" />
        </mxCell>
        <mxCell id="eoEls10Fh8nNtT96hwVB-36" value="删除模版" style="rounded=0;whiteSpace=wrap;html=1;" parent="1" vertex="1">
          <mxGeometry x="509" y="839" width="23" height="100" as="geometry" />
        </mxCell>
        <mxCell id="eoEls10Fh8nNtT96hwVB-37" value="查看模版" style="rounded=0;whiteSpace=wrap;html=1;" parent="1" vertex="1">
          <mxGeometry x="561.25" y="841" width="23" height="100" as="geometry" />
        </mxCell>
        <mxCell id="eoEls10Fh8nNtT96hwVB-39" value="" style="endArrow=none;html=1;rounded=0;exitX=0.5;exitY=1;exitDx=0;exitDy=0;" parent="1" source="eoEls10Fh8nNtT96hwVB-6" edge="1">
          <mxGeometry width="50" height="50" relative="1" as="geometry">
            <mxPoint x="544" y="730" as="sourcePoint" />
            <mxPoint x="490" y="800" as="targetPoint" />
          </mxGeometry>
        </mxCell>
        <mxCell id="eoEls10Fh8nNtT96hwVB-40" value="" style="endArrow=none;html=1;rounded=0;" parent="1" edge="1">
          <mxGeometry width="50" height="50" relative="1" as="geometry">
            <mxPoint x="406.75" y="800" as="sourcePoint" />
            <mxPoint x="572.75" y="800" as="targetPoint" />
          </mxGeometry>
        </mxCell>
        <mxCell id="eoEls10Fh8nNtT96hwVB-41" value="" style="endArrow=none;html=1;rounded=0;entryX=0.5;entryY=0;entryDx=0;entryDy=0;" parent="1" target="eoEls10Fh8nNtT96hwVB-34" edge="1">
          <mxGeometry width="50" height="50" relative="1" as="geometry">
            <mxPoint x="406.75" y="800" as="sourcePoint" />
            <mxPoint x="996.75" y="450" as="targetPoint" />
          </mxGeometry>
        </mxCell>
        <mxCell id="eoEls10Fh8nNtT96hwVB-42" value="" style="endArrow=none;html=1;rounded=0;entryX=0.5;entryY=0;entryDx=0;entryDy=0;" parent="1" target="eoEls10Fh8nNtT96hwVB-35" edge="1">
          <mxGeometry width="50" height="50" relative="1" as="geometry">
            <mxPoint x="456.75" y="800" as="sourcePoint" />
            <mxPoint x="996.75" y="450" as="targetPoint" />
          </mxGeometry>
        </mxCell>
        <mxCell id="eoEls10Fh8nNtT96hwVB-43" value="" style="endArrow=none;html=1;rounded=0;entryX=0.5;entryY=0;entryDx=0;entryDy=0;" parent="1" target="eoEls10Fh8nNtT96hwVB-36" edge="1">
          <mxGeometry width="50" height="50" relative="1" as="geometry">
            <mxPoint x="520" y="800" as="sourcePoint" />
            <mxPoint x="996.75" y="450" as="targetPoint" />
          </mxGeometry>
        </mxCell>
        <mxCell id="eoEls10Fh8nNtT96hwVB-44" value="" style="endArrow=none;html=1;rounded=0;entryX=0.5;entryY=0;entryDx=0;entryDy=0;" parent="1" target="eoEls10Fh8nNtT96hwVB-37" edge="1">
          <mxGeometry width="50" height="50" relative="1" as="geometry">
            <mxPoint x="572.75" y="800" as="sourcePoint" />
            <mxPoint x="556.75" y="830" as="targetPoint" />
          </mxGeometry>
        </mxCell>
        <mxCell id="eoEls10Fh8nNtT96hwVB-46" value="新增页面" style="rounded=0;whiteSpace=wrap;html=1;" parent="1" vertex="1">
          <mxGeometry x="609" y="841" width="23" height="100" as="geometry" />
        </mxCell>
        <mxCell id="eoEls10Fh8nNtT96hwVB-47" value="编辑页面" style="rounded=0;whiteSpace=wrap;html=1;" parent="1" vertex="1">
          <mxGeometry x="658" y="840" width="23" height="100" as="geometry" />
        </mxCell>
        <mxCell id="eoEls10Fh8nNtT96hwVB-48" value="删除页面" style="rounded=0;whiteSpace=wrap;html=1;" parent="1" vertex="1">
          <mxGeometry x="808" y="842" width="23" height="100" as="geometry" />
        </mxCell>
        <mxCell id="eoEls10Fh8nNtT96hwVB-50" value="查看页面" style="rounded=0;whiteSpace=wrap;html=1;" parent="1" vertex="1">
          <mxGeometry x="758.5" y="841" width="23" height="100" as="geometry" />
        </mxCell>
        <mxCell id="eoEls10Fh8nNtT96hwVB-51" value="页面设计" style="rounded=0;whiteSpace=wrap;html=1;" parent="1" vertex="1">
          <mxGeometry x="708" y="840" width="23" height="100" as="geometry" />
        </mxCell>
        <mxCell id="eoEls10Fh8nNtT96hwVB-52" value="权限设计" style="rounded=0;whiteSpace=wrap;html=1;" parent="1" vertex="1">
          <mxGeometry x="683" y="990" width="23" height="100" as="geometry" />
        </mxCell>
        <mxCell id="eoEls10Fh8nNtT96hwVB-53" value="协同设计" style="rounded=0;whiteSpace=wrap;html=1;" parent="1" vertex="1">
          <mxGeometry x="732" y="990" width="23" height="100" as="geometry" />
        </mxCell>
        <mxCell id="eoEls10Fh8nNtT96hwVB-54" value="数据源管理" style="rounded=0;whiteSpace=wrap;html=1;" parent="1" vertex="1">
          <mxGeometry x="929" y="640" width="23" height="100" as="geometry" />
        </mxCell>
        <mxCell id="eoEls10Fh8nNtT96hwVB-55" value="新增数据源" style="rounded=0;whiteSpace=wrap;html=1;" parent="1" vertex="1">
          <mxGeometry x="846.75" y="840" width="23" height="100" as="geometry" />
        </mxCell>
        <mxCell id="eoEls10Fh8nNtT96hwVB-56" value="编辑数据源" style="rounded=0;whiteSpace=wrap;html=1;" parent="1" vertex="1">
          <mxGeometry x="897.25" y="840" width="23" height="100" as="geometry" />
        </mxCell>
        <mxCell id="eoEls10Fh8nNtT96hwVB-57" value="删除数据源" style="rounded=0;whiteSpace=wrap;html=1;" parent="1" vertex="1">
          <mxGeometry x="959" y="842" width="23" height="100" as="geometry" />
        </mxCell>
        <mxCell id="eoEls10Fh8nNtT96hwVB-58" value="查看数据源" style="rounded=0;whiteSpace=wrap;html=1;" parent="1" vertex="1">
          <mxGeometry x="1013.25" y="841" width="23" height="100" as="geometry" />
        </mxCell>
        <mxCell id="eoEls10Fh8nNtT96hwVB-59" value="" style="endArrow=none;html=1;rounded=0;exitX=0.5;exitY=1;exitDx=0;exitDy=0;" parent="1" source="eoEls10Fh8nNtT96hwVB-54" edge="1">
          <mxGeometry width="50" height="50" relative="1" as="geometry">
            <mxPoint x="996" y="730" as="sourcePoint" />
            <mxPoint x="940" y="800" as="targetPoint" />
          </mxGeometry>
        </mxCell>
        <mxCell id="eoEls10Fh8nNtT96hwVB-60" value="" style="endArrow=none;html=1;rounded=0;" parent="1" edge="1">
          <mxGeometry width="50" height="50" relative="1" as="geometry">
            <mxPoint x="858.75" y="800" as="sourcePoint" />
            <mxPoint x="1024.75" y="800" as="targetPoint" />
          </mxGeometry>
        </mxCell>
        <mxCell id="eoEls10Fh8nNtT96hwVB-61" value="" style="endArrow=none;html=1;rounded=0;entryX=0.5;entryY=0;entryDx=0;entryDy=0;" parent="1" target="eoEls10Fh8nNtT96hwVB-55" edge="1">
          <mxGeometry width="50" height="50" relative="1" as="geometry">
            <mxPoint x="858.75" y="800" as="sourcePoint" />
            <mxPoint x="1448.75" y="450" as="targetPoint" />
          </mxGeometry>
        </mxCell>
        <mxCell id="eoEls10Fh8nNtT96hwVB-62" value="" style="endArrow=none;html=1;rounded=0;entryX=0.5;entryY=0;entryDx=0;entryDy=0;" parent="1" target="eoEls10Fh8nNtT96hwVB-56" edge="1">
          <mxGeometry width="50" height="50" relative="1" as="geometry">
            <mxPoint x="908.75" y="800" as="sourcePoint" />
            <mxPoint x="1448.75" y="450" as="targetPoint" />
          </mxGeometry>
        </mxCell>
        <mxCell id="eoEls10Fh8nNtT96hwVB-63" value="" style="endArrow=none;html=1;rounded=0;entryX=0.5;entryY=0;entryDx=0;entryDy=0;" parent="1" target="eoEls10Fh8nNtT96hwVB-57" edge="1">
          <mxGeometry width="50" height="50" relative="1" as="geometry">
            <mxPoint x="970" y="800" as="sourcePoint" />
            <mxPoint x="1448.75" y="450" as="targetPoint" />
          </mxGeometry>
        </mxCell>
        <mxCell id="eoEls10Fh8nNtT96hwVB-64" value="" style="endArrow=none;html=1;rounded=0;entryX=0.5;entryY=0;entryDx=0;entryDy=0;" parent="1" target="eoEls10Fh8nNtT96hwVB-58" edge="1">
          <mxGeometry width="50" height="50" relative="1" as="geometry">
            <mxPoint x="1024.75" y="800" as="sourcePoint" />
            <mxPoint x="1008.75" y="830" as="targetPoint" />
          </mxGeometry>
        </mxCell>
        <mxCell id="eoEls10Fh8nNtT96hwVB-65" value="" style="endArrow=none;html=1;rounded=0;entryX=0.5;entryY=1;entryDx=0;entryDy=0;" parent="1" target="eoEls10Fh8nNtT96hwVB-13" edge="1">
          <mxGeometry width="50" height="50" relative="1" as="geometry">
            <mxPoint x="720" y="800" as="sourcePoint" />
            <mxPoint x="770" y="810" as="targetPoint" />
          </mxGeometry>
        </mxCell>
        <mxCell id="eoEls10Fh8nNtT96hwVB-66" value="" style="endArrow=none;html=1;rounded=0;entryX=-4.007;entryY=0.525;entryDx=0;entryDy=0;entryPerimeter=0;" parent="1" edge="1">
          <mxGeometry width="50" height="50" relative="1" as="geometry">
            <mxPoint x="620" y="800" as="sourcePoint" />
            <mxPoint x="820.3499999999999" y="800.029" as="targetPoint" />
          </mxGeometry>
        </mxCell>
        <mxCell id="eoEls10Fh8nNtT96hwVB-67" value="" style="endArrow=none;html=1;rounded=0;exitX=0.5;exitY=0;exitDx=0;exitDy=0;" parent="1" source="eoEls10Fh8nNtT96hwVB-51" edge="1">
          <mxGeometry width="50" height="50" relative="1" as="geometry">
            <mxPoint x="720" y="840" as="sourcePoint" />
            <mxPoint x="720" y="800" as="targetPoint" />
          </mxGeometry>
        </mxCell>
        <mxCell id="eoEls10Fh8nNtT96hwVB-68" value="" style="endArrow=none;html=1;rounded=0;exitX=0.5;exitY=0;exitDx=0;exitDy=0;" parent="1" source="eoEls10Fh8nNtT96hwVB-46" edge="1">
          <mxGeometry width="50" height="50" relative="1" as="geometry">
            <mxPoint x="720" y="860" as="sourcePoint" />
            <mxPoint x="620" y="800" as="targetPoint" />
          </mxGeometry>
        </mxCell>
        <mxCell id="eoEls10Fh8nNtT96hwVB-69" value="" style="endArrow=none;html=1;rounded=0;exitX=0.5;exitY=0;exitDx=0;exitDy=0;" parent="1" source="eoEls10Fh8nNtT96hwVB-47" edge="1">
          <mxGeometry width="50" height="50" relative="1" as="geometry">
            <mxPoint x="720" y="860" as="sourcePoint" />
            <mxPoint x="670" y="800" as="targetPoint" />
          </mxGeometry>
        </mxCell>
        <mxCell id="eoEls10Fh8nNtT96hwVB-70" value="" style="endArrow=none;html=1;rounded=0;exitX=0.5;exitY=0;exitDx=0;exitDy=0;" parent="1" source="eoEls10Fh8nNtT96hwVB-50" edge="1">
          <mxGeometry width="50" height="50" relative="1" as="geometry">
            <mxPoint x="720" y="860" as="sourcePoint" />
            <mxPoint x="770" y="800" as="targetPoint" />
          </mxGeometry>
        </mxCell>
        <mxCell id="eoEls10Fh8nNtT96hwVB-71" value="" style="endArrow=none;html=1;rounded=0;exitX=0.5;exitY=0;exitDx=0;exitDy=0;" parent="1" source="eoEls10Fh8nNtT96hwVB-48" edge="1">
          <mxGeometry width="50" height="50" relative="1" as="geometry">
            <mxPoint x="720" y="860" as="sourcePoint" />
            <mxPoint x="820" y="800" as="targetPoint" />
          </mxGeometry>
        </mxCell>
        <mxCell id="eoEls10Fh8nNtT96hwVB-72" value="组件分类" style="rounded=0;whiteSpace=wrap;html=1;" parent="1" vertex="1">
          <mxGeometry x="1077" y="839" width="23" height="100" as="geometry" />
        </mxCell>
        <mxCell id="eoEls10Fh8nNtT96hwVB-73" value="组件新增" style="rounded=0;whiteSpace=wrap;html=1;" parent="1" vertex="1">
          <mxGeometry x="1115.5" y="839" width="23" height="100" as="geometry" />
        </mxCell>
        <mxCell id="eoEls10Fh8nNtT96hwVB-74" value="组件删除" style="rounded=0;whiteSpace=wrap;html=1;" parent="1" vertex="1">
          <mxGeometry x="1156" y="839" width="23" height="100" as="geometry" />
        </mxCell>
        <mxCell id="eoEls10Fh8nNtT96hwVB-75" value="生成器" style="rounded=0;whiteSpace=wrap;html=1;" parent="1" vertex="1">
          <mxGeometry x="1196.5" y="840" width="23" height="100" as="geometry" />
        </mxCell>
        <mxCell id="eoEls10Fh8nNtT96hwVB-76" value="组件上架" style="rounded=0;whiteSpace=wrap;html=1;" parent="1" vertex="1">
          <mxGeometry x="1236.5" y="839" width="23" height="100" as="geometry" />
        </mxCell>
        <mxCell id="eoEls10Fh8nNtT96hwVB-77" value="组件下架" style="rounded=0;whiteSpace=wrap;html=1;" parent="1" vertex="1">
          <mxGeometry x="1276" y="839" width="23" height="100" as="geometry" />
        </mxCell>
        <mxCell id="eoEls10Fh8nNtT96hwVB-78" value="" style="endArrow=none;html=1;rounded=0;entryX=0.5;entryY=1;entryDx=0;entryDy=0;" parent="1" edge="1">
          <mxGeometry width="50" height="50" relative="1" as="geometry">
            <mxPoint x="1182" y="800" as="sourcePoint" />
            <mxPoint x="1182" y="740" as="targetPoint" />
          </mxGeometry>
        </mxCell>
        <mxCell id="eoEls10Fh8nNtT96hwVB-79" value="" style="endArrow=none;html=1;rounded=0;" parent="1" edge="1">
          <mxGeometry width="50" height="50" relative="1" as="geometry">
            <mxPoint x="1088" y="800" as="sourcePoint" />
            <mxPoint x="1288" y="800" as="targetPoint" />
          </mxGeometry>
        </mxCell>
        <mxCell id="eoEls10Fh8nNtT96hwVB-80" value="" style="endArrow=none;html=1;rounded=0;exitX=0.5;exitY=0;exitDx=0;exitDy=0;" parent="1" source="eoEls10Fh8nNtT96hwVB-72" edge="1">
          <mxGeometry width="50" height="50" relative="1" as="geometry">
            <mxPoint x="728" y="860" as="sourcePoint" />
            <mxPoint x="1088" y="800" as="targetPoint" />
          </mxGeometry>
        </mxCell>
        <mxCell id="eoEls10Fh8nNtT96hwVB-81" value="" style="endArrow=none;html=1;rounded=0;exitX=0.5;exitY=0;exitDx=0;exitDy=0;" parent="1" source="eoEls10Fh8nNtT96hwVB-73" edge="1">
          <mxGeometry width="50" height="50" relative="1" as="geometry">
            <mxPoint x="728" y="860" as="sourcePoint" />
            <mxPoint x="1128" y="800" as="targetPoint" />
          </mxGeometry>
        </mxCell>
        <mxCell id="eoEls10Fh8nNtT96hwVB-82" value="" style="endArrow=none;html=1;rounded=0;exitX=0.5;exitY=0;exitDx=0;exitDy=0;" parent="1" source="eoEls10Fh8nNtT96hwVB-74" edge="1">
          <mxGeometry width="50" height="50" relative="1" as="geometry">
            <mxPoint x="768" y="860" as="sourcePoint" />
            <mxPoint x="1168" y="800" as="targetPoint" />
          </mxGeometry>
        </mxCell>
        <mxCell id="eoEls10Fh8nNtT96hwVB-83" value="" style="endArrow=none;html=1;rounded=0;exitX=0.5;exitY=0;exitDx=0;exitDy=0;" parent="1" source="eoEls10Fh8nNtT96hwVB-75" edge="1">
          <mxGeometry width="50" height="50" relative="1" as="geometry">
            <mxPoint x="768" y="860" as="sourcePoint" />
            <mxPoint x="1208" y="800" as="targetPoint" />
          </mxGeometry>
        </mxCell>
        <mxCell id="eoEls10Fh8nNtT96hwVB-84" value="" style="endArrow=none;html=1;rounded=0;exitX=0.5;exitY=0;exitDx=0;exitDy=0;" parent="1" source="eoEls10Fh8nNtT96hwVB-76" edge="1">
          <mxGeometry width="50" height="50" relative="1" as="geometry">
            <mxPoint x="768" y="860" as="sourcePoint" />
            <mxPoint x="1248" y="800" as="targetPoint" />
          </mxGeometry>
        </mxCell>
        <mxCell id="eoEls10Fh8nNtT96hwVB-85" value="" style="endArrow=none;html=1;rounded=0;exitX=0.5;exitY=0;exitDx=0;exitDy=0;" parent="1" source="eoEls10Fh8nNtT96hwVB-77" edge="1">
          <mxGeometry width="50" height="50" relative="1" as="geometry">
            <mxPoint x="768" y="860" as="sourcePoint" />
            <mxPoint x="1288" y="800" as="targetPoint" />
          </mxGeometry>
        </mxCell>
        <mxCell id="eoEls10Fh8nNtT96hwVB-87" value="" style="strokeWidth=1;html=1;shape=mxgraph.flowchart.annotation_2;align=left;labelPosition=right;pointerEvents=1;direction=south;" parent="1" vertex="1">
          <mxGeometry x="695.5" y="940" width="50" height="50" as="geometry" />
        </mxCell>
        <mxCell id="eoEls10Fh8nNtT96hwVB-88" value="属性设计" style="rounded=0;whiteSpace=wrap;html=1;" parent="1" vertex="1">
          <mxGeometry x="1171" y="990" width="23" height="100" as="geometry" />
        </mxCell>
        <mxCell id="eoEls10Fh8nNtT96hwVB-89" value="导出数据" style="rounded=0;whiteSpace=wrap;html=1;" parent="1" vertex="1">
          <mxGeometry x="1220" y="990" width="23" height="100" as="geometry" />
        </mxCell>
        <mxCell id="eoEls10Fh8nNtT96hwVB-90" value="" style="strokeWidth=1;html=1;shape=mxgraph.flowchart.annotation_2;align=left;labelPosition=right;pointerEvents=1;direction=south;" parent="1" vertex="1">
          <mxGeometry x="1183.5" y="940" width="50" height="50" as="geometry" />
        </mxCell>
        <mxCell id="rZ12Plim51_7xB85KV7m-1" value="" style="endArrow=none;html=1;rounded=0;exitX=0.5;exitY=0;exitDx=0;exitDy=0;" edge="1" parent="1" source="eoEls10Fh8nNtT96hwVB-6">
          <mxGeometry width="50" height="50" relative="1" as="geometry">
            <mxPoint x="750" y="780" as="sourcePoint" />
            <mxPoint x="491" y="560" as="targetPoint" />
          </mxGeometry>
        </mxCell>
        <mxCell id="rZ12Plim51_7xB85KV7m-2" value="" style="endArrow=none;html=1;rounded=0;exitX=0.5;exitY=0;exitDx=0;exitDy=0;" edge="1" parent="1" source="eoEls10Fh8nNtT96hwVB-13">
          <mxGeometry width="50" height="50" relative="1" as="geometry">
            <mxPoint x="750" y="780" as="sourcePoint" />
            <mxPoint x="721" y="560" as="targetPoint" />
          </mxGeometry>
        </mxCell>
        <mxCell id="rZ12Plim51_7xB85KV7m-3" value="" style="endArrow=none;html=1;rounded=0;exitX=0.5;exitY=0;exitDx=0;exitDy=0;" edge="1" parent="1" source="eoEls10Fh8nNtT96hwVB-54">
          <mxGeometry width="50" height="50" relative="1" as="geometry">
            <mxPoint x="750" y="780" as="sourcePoint" />
            <mxPoint x="940" y="560" as="targetPoint" />
          </mxGeometry>
        </mxCell>
        <mxCell id="rZ12Plim51_7xB85KV7m-4" value="" style="endArrow=none;html=1;rounded=0;entryX=0.5;entryY=0;entryDx=0;entryDy=0;" edge="1" parent="1" target="eoEls10Fh8nNtT96hwVB-9">
          <mxGeometry width="50" height="50" relative="1" as="geometry">
            <mxPoint x="1180" y="560" as="sourcePoint" />
            <mxPoint x="800" y="730" as="targetPoint" />
          </mxGeometry>
        </mxCell>
      </root>
    </mxGraphModel>
  </diagram>
</mxfile>
